<?xml version="1.0" encoding="UTF-8"?>
<svg width="100%" height="100%" viewBox="0 0 1023 1111" version="1.1"
     xmlns="http://www.w3.org/2000/svg" xml:space="preserve"
     style="fill-rule:evenodd;clip-rule:evenodd;stroke-linejoin:round;stroke-miterlimit:1.41421;overflow:hidden;">
  <title>ALIUS vector leaf logo</title>
  <desc>Three static SVG paths extracted from the ALIUS animated vector leaf source; overlap tones use multiply blending.</desc>
  <style><![CDATA[
    #alius-logo { isolation: isolate; }
    .leaf { mix-blend-mode: multiply; }
  ]]></style>
  <g id="alius-logo">
    <path id="middle-leaf" class="leaf" fill="#6AB12E" d="M426.639,782.487 C427.052,771.432 430.948,743.273 433.632,731.494 C436.316,719.716 446.006,685.138 452.612,668.504 C459.218,651.870 487.862,589.736 497.565,570.519 C507.269,551.302 539.598,496.688 546.514,482.533 C553.431,468.379 561.502,443.769 564.496,433.541 C567.489,423.312 573.936,397.186 575.484,383.548 C577.033,369.911 579.687,315.612 579.480,301.561 C579.274,287.510 575.551,259.244 573.486,247.570 C571.422,235.895 562.494,199.117 559.501,188.579 C556.507,178.040 547.613,153.231 544.517,145.585 C541.420,137.940 527.364,112.007 529.532,114.590 C531.700,117.173 556.617,155.704 565.495,170.582 C574.372,185.459 605.843,240.797 615.443,258.568 C625.043,276.338 650.553,325.817 658.398,342.555 C666.243,359.292 684.964,403.909 691.364,420.543 C697.764,437.177 715.482,485.449 720.334,503.530 C725.185,521.610 736.147,577.745 738.315,595.516 C740.483,613.286 741.931,659.386 741.312,675.503 C740.693,691.621 735.625,735.167 732.321,751.491 C729.018,767.815 715.436,816.535 709.345,833.479 C703.255,850.423 683.189,896.662 673.383,915.466 C663.576,934.270 625.902,997.473 614.444,1015.450 C602.986,1033.428 568.898,1080.554 562.498,1089.439 C556.098,1098.324 564.070,1120.241 552.508,1101.437 C540.947,1082.633 462.692,931.850 450.614,907.467 C438.537,883.084 437.797,872.603 435.630,865.474 C433.462,858.345 430.565,847.053 429.636,838.478 C428.707,829.902 426.226,793.541 426.639,782.487 Z"/>
    <path id="left-leaf" class="leaf" fill="#058136" d="M0.000,498.986 C0.206,482.158 3.137,457.044 4.995,444.036 C6.853,431.027 14.989,386.418 17.982,373.100 C20.976,359.782 30.250,326.922 33.967,315.152 C37.683,303.383 47.960,273.450 53.947,259.203 C59.935,244.956 84.684,191.525 91.910,177.278 C99.137,163.031 116.653,132.994 123.879,121.328 C131.105,109.662 154.306,74.704 161.842,64.380 C169.378,54.056 194.847,19.561 196.808,21.419 C198.769,23.277 183.404,68.943 180.824,82.364 C178.243,95.785 172.452,136.744 171.832,151.301 C171.213,165.858 173.694,211.880 174.829,223.236 C175.965,234.592 180.654,253.355 182.822,261.201 C184.990,269.048 191.267,289.153 195.809,299.167 C200.351,309.181 219.140,346.034 226.779,358.113 C234.418,370.193 258.897,403.259 269.737,416.061 C280.576,428.863 316.811,467.341 331.676,482.001 C346.542,496.661 402.241,546.886 413.596,557.932 C424.952,568.979 436.201,581.987 441.569,588.904 C446.937,595.821 461.004,617.025 465.546,624.871 C470.088,632.718 481.397,654.718 485.526,664.835 C489.656,674.953 502.203,711.117 505.507,722.783 C508.810,734.449 515.430,765.241 517.495,777.733 C519.560,790.225 523.629,817.140 525.487,843.673 C527.346,870.205 533.619,1010.445 535.478,1034.500 C537.336,1058.555 541.715,1069.854 543.470,1076.462 C545.225,1083.069 551.532,1095.861 552.461,1098.442 C553.390,1101.023 555.971,1101.129 552.461,1101.439 C548.951,1101.749 528.198,1102.058 518.494,1101.439 C508.790,1100.820 471.147,1097.406 458.553,1095.444 C445.958,1093.483 407.556,1085.244 396.613,1082.456 C385.670,1079.669 362.566,1072.186 352.656,1068.469 C342.746,1064.752 309.894,1050.825 300.707,1046.489 C291.519,1042.153 271.382,1031.050 263.743,1026.507 C256.103,1021.964 235.347,1008.826 226.779,1002.529 C218.210,996.231 192.076,976.402 180.824,965.562 C169.571,954.722 127.176,908.567 117.885,897.624 C108.594,886.681 96.486,868.434 90.911,859.658 C85.337,850.883 68.686,821.786 63.938,812.701 C59.189,803.616 48.982,781.752 44.956,771.738 C40.930,761.724 28.279,726.423 24.976,715.789 C21.672,705.155 15.258,680.085 12.987,668.832 C10.716,657.578 4.339,624.438 2.997,606.888 C1.655,589.337 -0.206,515.814 0.000,498.986 Z"/>
    <path id="right-leaf" class="leaf" fill="#83BB26" d="M380.996,751.628 C381.719,743.468 385.204,723.218 387.993,714.646 C390.781,706.074 402.923,677.448 407.984,668.669 C413.045,659.890 431.289,636.298 436.970,629.688 C442.651,623.078 457.174,609.658 462.958,604.700 C468.742,599.743 485.301,586.876 492.944,581.712 C500.588,576.548 514.408,565.983 536.924,554.725 C559.440,543.467 684.609,486.193 710.844,472.766 C737.078,459.339 779.136,432.329 790.807,424.790 C802.478,417.250 817.285,405.276 823.792,399.802 C830.299,394.328 848.200,377.703 853.778,371.816 C859.355,365.929 873.739,348.407 877.767,342.830 C881.795,337.253 889.868,323.833 892.760,317.843 C895.652,311.852 903.895,291.366 905.754,284.859 C907.613,278.352 910.442,262.000 910.752,254.874 C911.061,247.747 910.405,224.775 908.753,215.893 C907.100,207.011 898.890,178.728 894.759,168.916 C890.628,159.105 874.452,129.926 868.771,120.940 C863.090,111.955 845.052,88.569 839.784,81.959 C834.517,75.349 826.264,65.441 817.795,56.972 C809.325,48.503 758.752,2.892 757.822,0.000 C756.893,-2.892 797.127,21.343 808.799,28.986 C820.470,36.629 858.582,63.945 870.770,73.963 C882.958,83.982 917.965,116.952 926.744,125.938 C935.524,134.923 950.567,154.207 955.731,160.920 C960.895,167.634 972.383,183.779 976.721,190.905 C981.059,198.032 993.993,221.624 997.712,229.886 C1001.430,238.149 1010.329,262.810 1012.705,270.866 C1015.080,278.922 1019.875,295.454 1020.701,307.848 C1021.527,320.241 1021.527,378.309 1020.701,390.806 C1019.875,403.304 1014.977,420.732 1012.705,428.788 C1010.432,436.844 1002.429,460.092 998.711,468.768 C994.993,477.444 982.402,503.141 976.721,512.746 C971.040,522.351 950.037,553.253 943.736,561.722 C937.436,570.191 924.012,586.133 915.749,594.705 C907.486,603.278 874.515,635.385 863.773,644.681 C853.032,653.976 820.680,678.257 811.797,684.661 C802.915,691.064 785.146,702.209 777.813,706.650 C770.480,711.091 753.534,721.236 740.830,727.640 C728.126,734.043 668.710,761.493 654.870,768.619 C641.029,775.746 615.878,790.615 606.892,796.605 C597.906,802.596 574.623,820.497 567.910,826.591 C561.196,832.684 546.570,848.450 541.922,855.576 C537.274,862.703 525.306,889.256 522.931,895.556 C520.555,901.857 519.346,911.175 518.932,916.546 C518.519,921.917 518.003,939.165 518.932,947.531 C519.862,955.897 523.590,980.671 527.928,997.506 C532.266,1014.341 560.913,1102.394 560.913,1110.450 C560.913,1118.506 536.398,1085.486 527.928,1075.467 C519.459,1065.449 487.627,1025.272 478.951,1013.498 C470.275,1001.724 449.958,971.129 443.967,961.524 C437.976,951.919 425.316,929.116 420.978,920.544 C416.640,911.972 405.395,887.447 401.986,878.565 C398.578,869.683 390.162,843.366 387.993,834.587 C385.824,825.808 381.719,802.179 380.996,793.607 C380.273,785.035 380.273,759.787 380.996,751.628 Z"/>
  </g>
</svg>
